<svg version="1.1" id="Layer_1" xmlns="http://www.w3.org/2000/svg" xmlns:xlink="http://www.w3.org/1999/xlink" x="0px" y="0px"
	 width="100%" viewBox="0 0 1024 544" enable-background="new 0 0 1024 544" xml:space="preserve">
<path fill="currentColor" opacity="1.000000" stroke="none" 
	d="
M208.075470,299.919922 
	C205.135849,296.707642 202.505432,293.689545 199.711472,290.831299 
	C195.841400,286.872192 191.667343,283.327179 186.086960,281.941498 
	C176.594498,279.584351 168.187332,284.375397 165.561020,293.769043 
	C164.980774,295.844421 164.597992,297.999542 164.368881,300.144073 
	C163.622864,307.127045 163.717484,307.198059 170.673157,308.366760 
	C203.115189,313.817719 224.292419,335.257538 227.984711,367.957550 
	C230.528580,390.486694 230.645859,413.241913 228.189499,435.798157 
	C225.786942,457.860229 206.470520,474.090149 184.029709,474.256134 
	C161.503143,474.422760 142.073257,458.091339 138.748474,436.200592 
	C138.122452,432.078735 137.795380,427.948944 137.805069,423.766113 
	C137.871429,395.102875 137.754120,366.438629 137.980774,337.776947 
	C138.019577,332.867737 136.238403,331.053192 131.598892,330.392609 
	C91.475937,324.679718 57.318169,290.724945 49.485783,251.156403 
	C39.869358,202.575058 71.368210,146.778534 127.997643,132.956558 
	C135.245163,131.187607 139.298004,128.113708 142.755554,121.230072 
	C157.759171,91.359383 181.926727,72.711754 215.114670,67.195724 
	C270.060974,58.063316 318.480988,92.995743 327.578705,145.337616 
	C328.823700,152.500412 328.887970,152.105560 336.262329,152.771393 
	C374.055237,156.183655 402.839417,174.385010 421.246216,207.416382 
	C448.368744,256.088409 434.858887,318.836151 390.778229,353.148651 
	C380.811768,360.906525 380.811798,360.906555 389.261932,370.445892 
	C412.905182,397.136658 436.559784,423.817352 460.179718,450.528687 
	C463.843567,454.672058 466.474152,459.207214 464.301178,465.048126 
	C462.080933,471.016113 457.095703,472.561859 451.489624,472.702240 
	C446.502899,472.827087 441.504730,472.407257 436.513062,472.440308 
	C415.854187,472.577026 395.193970,472.685913 374.538422,473.045929 
	C368.032471,473.159302 363.043945,470.885712 358.715393,466.103607 
	C308.621521,410.760712 258.457275,355.481506 208.075470,299.919922 
M388.220612,202.279510 
	C377.474365,191.111282 364.782776,183.194748 349.742920,179.156326 
	C340.483093,176.669937 331.047821,176.241211 321.519653,176.279205 
	C309.423798,176.327423 305.266205,172.139694 304.940277,160.198776 
	C304.858490,157.202591 304.926971,154.173035 304.501770,151.219971 
	C300.236084,121.596054 277.627228,97.196609 248.638885,90.809906 
	C218.309570,84.127739 187.658859,96.390671 170.881012,121.648247 
	C166.036652,128.940979 162.596207,136.822418 159.512054,144.919678 
	C157.337036,150.630081 153.232910,153.729279 147.195969,154.413452 
	C143.724411,154.806885 140.219101,155.082397 136.806107,155.785431 
	C96.687912,164.049179 70.566223,198.261459 73.082756,239.145081 
	C75.052101,271.138824 99.610909,299.720001 130.879135,306.312012 
	C133.225357,306.806610 135.671860,307.561829 138.552490,306.483765 
	C138.279068,299.556610 139.263611,292.831573 141.857529,286.464386 
	C148.627930,269.845276 160.543076,259.455139 178.717651,257.648834 
	C194.158295,256.114258 206.506470,262.648041 216.698730,273.877899 
	C268.417358,330.861450 320.164856,387.818817 371.832123,444.848938 
	C374.252319,447.520325 376.701019,448.916840 380.404449,448.874023 
	C393.730408,448.719971 407.059692,448.868164 420.387512,448.835388 
	C421.765686,448.831970 423.381561,449.442627 424.810944,447.644226 
	C417.991516,439.723694 411.209290,431.748566 404.321381,423.865814 
	C387.770996,404.924805 371.125732,386.066528 354.611542,367.094086 
	C347.207153,358.587494 348.819427,350.344055 358.717743,344.932800 
	C360.471069,343.974304 362.292450,343.139465 364.037872,342.167542 
	C394.280975,325.327942 409.772980,299.014862 411.405212,265.014862 
	C412.533081,241.521332 404.623657,220.487350 388.220612,202.279510 
M162.288269,377.500000 
	C162.283768,393.660522 162.304352,409.821075 162.258347,425.981476 
	C162.245773,430.398285 163.178436,434.590881 164.991516,438.566772 
	C168.790939,446.898560 177.850143,451.685638 186.714828,450.166107 
	C197.865402,448.254700 204.209778,442.375153 204.575974,431.929413 
	C205.322693,410.629608 205.848648,389.281250 203.612640,368.035675 
	C201.793152,350.747894 187.916290,336.111359 170.869171,332.651581 
	C164.083908,331.274475 162.339584,332.622498 162.312347,339.514099 
	C162.263596,351.842560 162.295807,364.171356 162.288269,377.500000 
z"/>
<path fill="currentColor" opacity="1.000000" stroke="none" 
	d="
M567.000000,329.852448 
	C579.791077,330.073547 592.124023,328.970673 604.328125,331.568298 
	C624.256287,335.809967 638.458923,349.495514 641.320618,367.491638 
	C644.880249,389.877380 636.551147,408.565399 618.347778,419.093811 
	C617.081848,419.826019 615.524658,420.193115 614.484558,422.231079 
	C619.404236,429.542236 624.483521,437.103729 629.576721,444.655884 
	C634.676575,452.217743 639.790161,459.770294 645.049194,467.550995 
	C641.225952,470.030304 637.474121,468.505981 634.017029,469.079041 
	C623.952393,470.747559 617.233704,467.126160 612.206787,457.920502 
	C607.124939,448.614288 600.312134,440.263336 594.436462,431.375671 
	C592.111023,427.858307 589.371338,426.165344 584.976135,426.308563 
	C575.993103,426.601257 566.990540,426.513519 558.002197,426.309875 
	C554.401306,426.228271 552.721191,427.507172 552.699158,431.098236 
	C552.632812,441.914185 552.378418,452.731628 552.507812,463.544800 
	C552.556885,467.642487 551.174316,469.342743 547.041016,469.107208 
	C543.055969,468.880096 539.050415,469.008636 535.053833,468.991394 
	C531.816223,468.977448 530.483093,467.715332 530.496460,464.139862 
	C530.643127,424.838684 530.613647,385.536835 530.622070,346.235168 
	C530.622681,343.404999 530.657532,340.567993 530.483887,337.746002 
	C530.033691,330.425873 530.417603,329.902252 537.523010,329.868134 
	C547.181763,329.821777 556.841003,329.854706 567.000000,329.852448 
M617.383057,368.294525 
	C614.127930,357.709869 606.029114,353.024231 595.920959,351.300018 
	C583.028259,349.100830 569.980591,350.667542 557.007202,350.301971 
	C553.474426,350.202454 552.915344,352.624420 552.770325,355.238220 
	C551.920776,370.553711 552.359619,385.878723 552.580872,401.200012 
	C552.626648,404.370209 554.190186,405.888031 557.641113,405.829865 
	C568.469116,405.647278 579.309448,405.970551 590.130188,405.628326 
	C605.535522,405.141144 615.916016,396.647400 618.365540,382.953583 
	C619.198303,378.298309 618.700989,373.657928 617.383057,368.294525 
z"/>
<path fill="currentColor" opacity="1.000000" stroke="none" 
	d="
M867.000000,224.922272 
	C852.506531,224.976105 838.512756,224.992935 824.519836,225.108231 
	C816.929993,225.170776 815.140503,228.592377 819.061340,235.294159 
	C826.292664,247.654221 842.555969,254.223709 858.245361,251.287552 
	C865.638733,249.903915 872.268066,247.055283 877.725586,241.835678 
	C879.878235,239.776764 881.563904,239.708023 883.559570,241.983566 
	C885.863647,244.610840 888.265991,247.171051 890.811523,249.562500 
	C893.723999,252.298660 893.189575,254.623795 890.515503,257.092010 
	C882.843628,264.173126 873.854004,268.804871 863.639038,270.577515 
	C841.514221,274.416962 821.143188,270.896423 805.723267,253.193863 
	C790.867493,236.139099 788.441345,216.092926 797.151306,195.726151 
	C806.006714,175.019547 822.632202,163.357285 845.481079,162.833923 
	C878.182556,162.084900 901.237061,186.380920 900.257019,219.390213 
	C900.142212,223.257812 898.714539,224.853073 894.986572,224.848297 
	C885.824463,224.836578 876.662170,224.895691 867.000000,224.922272 
M825.335083,190.821121 
	C823.044678,193.253006 821.148071,195.960373 819.455444,198.842957 
	C815.924622,204.855881 817.201843,207.534958 824.096252,207.594788 
	C840.054382,207.733261 856.014526,207.704132 871.973572,207.649689 
	C876.762268,207.633347 877.474365,206.355347 875.662598,201.789673 
	C867.588440,181.442719 842.357361,175.631683 825.335083,190.821121 
z"/>
<path fill="currentColor" opacity="1.000000" stroke="none" 
	d="
M729.000000,423.108704 
	C715.012878,423.107574 701.525635,423.066101 688.038757,423.119629 
	C682.072144,423.143311 681.186157,424.554260 683.516846,430.032196 
	C688.771362,442.382660 698.791992,448.163300 711.534973,449.526367 
	C723.689392,450.826477 735.193542,448.998047 744.375427,439.880005 
	C746.270386,437.998199 747.732239,438.258789 749.419495,440.009888 
	C751.614014,442.287354 753.912903,444.463837 756.131714,446.718323 
	C760.553406,451.211273 760.410950,452.643860 755.205322,456.938995 
	C742.705994,467.252014 728.035339,470.905457 712.278564,469.890717 
	C689.323730,468.412445 671.678406,457.997375 662.726562,436.213165 
	C648.536133,401.680878 672.019775,364.634094 709.355530,361.595764 
	C744.129272,358.765930 768.384583,384.462982 766.420044,418.993164 
	C766.219116,422.525757 764.218506,423.025146 761.468933,423.030579 
	C750.812622,423.051636 740.156311,423.080841 729.000000,423.108704 
M716.500000,405.847748 
	C724.156128,405.830444 731.813904,405.712372 739.467712,405.836334 
	C743.579224,405.902893 744.481689,404.136871 743.148254,400.580750 
	C740.872131,394.510742 737.434753,389.319824 731.899109,385.726105 
	C714.890137,374.683960 693.735657,381.290344 684.773071,400.435974 
	C682.746094,404.765778 683.259705,405.771393 688.038208,405.826782 
	C697.190979,405.932922 706.345947,405.850830 716.500000,405.847748 
z"/>
<path fill="currentColor" opacity="1.000000" stroke="none" 
	d="
M722.828491,184.721863 
	C708.379700,217.690842 694.222290,250.372864 679.775818,282.926605 
	C669.239075,306.670197 646.088440,315.287994 623.072083,304.391785 
	C621.723022,303.753174 620.442383,302.966003 619.147461,302.217590 
	C615.152527,299.908508 613.809387,297.096497 616.967957,292.959259 
	C619.280640,289.929993 620.562195,285.660156 623.480286,283.661774 
	C627.080872,281.195953 630.338196,285.622467 633.788269,286.802765 
	C648.971680,291.997101 658.061279,284.145569 661.513367,270.360046 
	C662.350403,267.017487 660.611389,264.168854 659.306946,261.322571 
	C646.682983,233.777725 633.981873,206.268173 621.386597,178.710266 
	C619.403320,174.370987 616.963684,170.187485 615.648987,164.902222 
	C623.201111,163.595673 630.418701,163.610489 637.601318,164.785660 
	C639.975891,165.174164 640.503052,167.822464 641.376038,169.751022 
	C651.056335,191.135742 660.692627,212.540359 670.352356,233.934387 
	C671.506104,236.489777 672.728210,239.014313 674.085693,241.909424 
	C676.338013,240.392975 676.721436,238.186874 677.526794,236.338806 
	C687.369995,213.752640 697.219910,191.168930 706.899414,168.512543 
	C708.292664,165.251556 710.201965,163.817017 713.674927,164.003510 
	C719.253967,164.303070 724.932983,163.381378 731.090698,165.286743 
	C728.277954,171.921173 725.636963,178.150558 722.828491,184.721863 
z"/>
<path fill="currentColor" opacity="1.000000" stroke="none" 
	d="
M813.103210,444.999939 
	C813.091919,451.828461 813.021973,458.157654 813.092407,464.485260 
	C813.127075,467.598328 811.810669,469.146210 808.658508,469.115448 
	C804.163086,469.071533 799.667114,469.080933 795.171509,469.046906 
	C791.872192,469.021912 790.574646,467.466278 790.583984,464.053589 
	C790.671692,432.077728 790.667603,400.101379 790.575500,368.125549 
	C790.564880,364.420135 792.118835,362.955048 795.614624,363.061554 
	C796.612610,363.091980 797.612793,363.041382 798.611877,363.048553 
	C805.247864,363.096313 813.218384,360.876648 812.865051,371.615234 
	C815.247070,372.341827 816.229248,370.937103 817.409119,370.150024 
	C831.150452,360.983978 846.074402,358.989014 861.804810,363.280884 
	C877.893921,367.670502 888.774292,380.887878 890.232056,397.598846 
	C892.189209,420.034210 890.615784,442.533905 891.194031,464.996735 
	C891.274475,468.119965 889.622986,469.113586 886.879089,469.102814 
	C882.216614,469.084534 877.553772,469.085419 872.891785,469.025330 
	C869.652344,468.983582 868.388794,467.631287 868.442505,464.063293 
	C868.690857,447.579254 868.662781,431.089661 868.575623,414.602905 
	C868.553711,410.455322 868.199158,406.271881 867.564636,402.171906 
	C865.240540,387.153595 852.475403,378.636688 837.141418,381.701233 
	C822.146179,384.698059 813.765686,394.445160 813.321045,410.028625 
	C812.993347,421.511810 813.157410,433.009003 813.103210,444.999939 
z"/>
<path fill="currentColor" opacity="1.000000" stroke="none" 
	d="
M553.567139,227.311432 
	C553.404297,204.363205 553.240356,181.884109 553.090881,159.404938 
	C553.041260,151.938293 552.646851,151.669739 545.165222,151.378708 
	C533.842407,150.938232 522.541138,152.379196 511.201630,151.501678 
	C507.485229,151.214066 506.255249,150.016983 506.518585,146.355011 
	C506.780304,142.715973 506.589020,139.023376 506.326508,135.373672 
	C506.074341,131.867599 507.514679,130.679962 510.946136,130.688065 
	C546.438660,130.771774 581.931396,130.777557 617.424011,130.737747 
	C620.729675,130.734039 622.409668,131.846466 622.280945,135.366135 
	C622.140991,139.193451 622.140015,143.034225 622.286743,146.861145 
	C622.418640,150.301880 621.019043,151.530624 617.551392,151.476456 
	C606.222900,151.299500 594.890381,151.380814 583.559448,151.361649 
	C576.014587,151.348892 576.042786,151.347977 576.051819,158.637207 
	C576.094543,193.296463 576.126099,227.955734 576.148315,262.614990 
	C576.152832,269.721558 575.677124,270.167908 568.450195,270.267822 
	C553.555420,270.473663 553.557739,270.473694 553.566833,255.774643 
	C553.572632,246.443268 553.570374,237.111893 553.567139,227.311432 
z"/>
<path fill="currentColor" opacity="1.000000" stroke="none" 
	d="
M746.935669,192.000000 
	C746.942383,171.529984 747.045837,151.559174 746.885620,131.590500 
	C746.846985,126.778618 747.833923,124.554138 753.435669,124.374161 
	C769.411377,123.860878 769.379822,123.559532 769.376221,139.452621 
	C769.366882,180.558289 769.386230,221.663956 769.374878,262.769623 
	C769.372925,269.852386 769.108093,270.086761 762.262451,270.312500 
	C747.036499,270.814606 746.993042,270.814697 746.960693,255.906174 
	C746.914795,234.770859 746.940552,213.635391 746.935669,192.000000 
z"/>
<path fill="currentColor" opacity="1.000000" stroke="none" 
	d="
M983.119263,170.110718 
	C982.936951,174.896042 984.742493,179.958542 982.389343,183.312164 
	C979.730347,187.101639 974.312927,184.622742 970.140747,185.102600 
	C961.860962,186.054916 955.784424,190.071838 951.669189,197.149033 
	C948.269714,202.995361 946.265381,209.303848 946.250000,216.129181 
	C946.214294,231.949158 946.068298,247.771545 946.305420,263.587891 
	C946.378662,268.473480 944.445862,270.235413 939.883484,270.014648 
	C936.227783,269.837769 932.565857,269.709412 928.906555,269.707703 
	C924.798340,269.705811 923.604187,267.658234 923.640320,263.735321 
	C923.791870,247.250488 923.696533,230.763397 923.692749,214.277130 
	C923.689270,199.456146 923.815796,184.633316 923.605103,169.815292 
	C923.543396,165.475143 925.005005,163.705048 929.336975,163.975632 
	C932.654114,164.182831 936.001465,164.129425 939.324341,163.966400 
	C943.439331,163.764511 945.659363,165.183731 945.328369,169.680176 
	C945.201477,171.404434 944.871399,173.390076 946.706787,174.833649 
	C949.152832,174.126053 950.777710,172.117706 952.772217,170.705261 
	C959.766235,165.752426 967.525818,163.108704 976.065125,162.794037 
	C982.826538,162.544907 982.988525,162.752304 983.119263,170.110718 
z"/>
</svg>